<svg width="558" height="93" viewBox="0 0 558 93" fill="none" xmlns="http://www.w3.org/2000/svg">
<g filter="url(#filter0_d_23_361)">
<path d="M4.58 65.44C4.58 62.08 5.26 59.14 6.62 56.62C7.98 54.06 9.84 52.08 12.2 50.68C14.6 49.28 17.26 48.58 20.18 48.58C23.06 48.58 25.56 49.2 27.68 50.44C29.8 51.68 31.38 53.24 32.42 55.12V49.12H37.94V82H32.42V75.88C31.34 77.8 29.72 79.4 27.56 80.68C25.44 81.92 22.96 82.54 20.12 82.54C17.2 82.54 14.56 81.82 12.2 80.38C9.84 78.94 7.98 76.92 6.62 74.32C5.26 71.72 4.58 68.76 4.58 65.44ZM32.42 65.5C32.42 63.02 31.92 60.86 30.92 59.02C29.92 57.18 28.56 55.78 26.84 54.82C25.16 53.82 23.3 53.32 21.26 53.32C19.22 53.32 17.36 53.8 15.68 54.76C14 55.72 12.66 57.12 11.66 58.96C10.66 60.8 10.16 62.96 10.16 65.44C10.16 67.96 10.66 70.16 11.66 72.04C12.66 73.88 14 75.3 15.68 76.3C17.36 77.26 19.22 77.74 21.26 77.74C23.3 77.74 25.16 77.26 26.84 76.3C28.56 75.3 29.92 73.88 30.92 72.04C31.92 70.16 32.42 67.98 32.42 65.5ZM60.6069 82.54C58.0869 82.54 55.8269 82.12 53.8269 81.28C51.8269 80.4 50.2469 79.2 49.0869 77.68C47.9269 76.12 47.2869 74.34 47.1669 72.34H52.8069C52.9669 73.98 53.7269 75.32 55.0869 76.36C56.4869 77.4 58.3069 77.92 60.5469 77.92C62.6269 77.92 64.2669 77.46 65.4669 76.54C66.6669 75.62 67.2669 74.46 67.2669 73.06C67.2669 71.62 66.6269 70.56 65.3469 69.88C64.0669 69.16 62.0869 68.46 59.4069 67.78C56.9669 67.14 54.9669 66.5 53.4069 65.86C51.8869 65.18 50.5669 64.2 49.4469 62.92C48.3669 61.6 47.8269 59.88 47.8269 57.76C47.8269 56.08 48.3269 54.54 49.3269 53.14C50.3269 51.74 51.7469 50.64 53.5869 49.84C55.4269 49 57.5269 48.58 59.8869 48.58C63.5269 48.58 66.4669 49.5 68.7069 51.34C70.9469 53.18 72.1469 55.7 72.3069 58.9H66.8469C66.7269 57.18 66.0269 55.8 64.7469 54.76C63.5069 53.72 61.8269 53.2 59.7069 53.2C57.7469 53.2 56.1869 53.62 55.0269 54.46C53.8669 55.3 53.2869 56.4 53.2869 57.76C53.2869 58.84 53.6269 59.74 54.3069 60.46C55.0269 61.14 55.9069 61.7 56.9469 62.14C58.0269 62.54 59.5069 63 61.3869 63.52C63.7469 64.16 65.6669 64.8 67.1469 65.44C68.6269 66.04 69.8869 66.96 70.9269 68.2C72.0069 69.44 72.5669 71.06 72.6069 73.06C72.6069 74.86 72.1069 76.48 71.1069 77.92C70.1069 79.36 68.6869 80.5 66.8469 81.34C65.0469 82.14 62.9669 82.54 60.6069 82.54ZM100.475 82L87.5745 67.48V82H82.1145V37.6H87.5745V63.7L100.235 49.12H107.855L92.3745 65.5L107.915 82H100.475ZM204.443 4.78V82H185.633V35.69L168.363 82H153.183L135.803 35.58V82H116.993V4.78H139.213L160.883 58.24L182.333 4.78H204.443ZM217.53 51.2C217.53 44.8933 218.703 39.3567 221.05 34.59C223.47 29.8233 226.733 26.1567 230.84 23.59C234.947 21.0233 239.53 19.74 244.59 19.74C248.917 19.74 252.693 20.62 255.92 22.38C259.22 24.14 261.75 26.45 263.51 29.31V20.62H282.32V82H263.51V73.31C261.677 76.17 259.11 78.48 255.81 80.24C252.583 82 248.807 82.88 244.48 82.88C239.493 82.88 234.947 81.5967 230.84 79.03C226.733 76.39 223.47 72.6867 221.05 67.92C218.703 63.08 217.53 57.5067 217.53 51.2ZM263.51 51.31C263.51 46.6167 262.19 42.9133 259.55 40.2C256.983 37.4867 253.83 36.13 250.09 36.13C246.35 36.13 243.16 37.4867 240.52 40.2C237.953 42.84 236.67 46.5067 236.67 51.2C236.67 55.8933 237.953 59.6333 240.52 62.42C243.16 65.1333 246.35 66.49 250.09 66.49C253.83 66.49 256.983 65.1333 259.55 62.42C262.19 59.7067 263.51 56.0033 263.51 51.31ZM318.038 30.85C320.238 27.4767 322.988 24.8367 326.288 22.93C329.588 20.95 333.255 19.96 337.288 19.96V39.87H332.118C327.425 39.87 323.905 40.8967 321.558 42.95C319.212 44.93 318.038 48.45 318.038 53.51V82H299.228V20.62H318.038V30.85ZM387.089 82L368.389 56.26V82H349.579V0.599999H368.389V45.59L386.979 20.62H410.189L384.669 51.42L410.409 82H387.089ZM478.737 50.32C478.737 52.08 478.627 53.9133 478.407 55.82H435.837C436.13 59.6333 437.34 62.5667 439.467 64.62C441.667 66.6 444.344 67.59 447.497 67.59C452.19 67.59 455.454 65.61 457.287 61.65H477.307C476.28 65.6833 474.41 69.3133 471.697 72.54C469.057 75.7667 465.72 78.2967 461.687 80.13C457.654 81.9633 453.144 82.88 448.157 82.88C442.144 82.88 436.79 81.5967 432.097 79.03C427.404 76.4633 423.737 72.7967 421.097 68.03C418.457 63.2633 417.137 57.69 417.137 51.31C417.137 44.93 418.42 39.3567 420.987 34.59C423.627 29.8233 427.294 26.1567 431.987 23.59C436.68 21.0233 442.07 19.74 448.157 19.74C454.097 19.74 459.377 20.9867 463.997 23.48C468.617 25.9733 472.21 29.53 474.777 34.15C477.417 38.77 478.737 44.16 478.737 50.32ZM459.487 45.37C459.487 42.1433 458.387 39.5767 456.187 37.67C453.987 35.7633 451.237 34.81 447.937 34.81C444.784 34.81 442.107 35.7267 439.907 37.56C437.78 39.3933 436.46 41.9967 435.947 45.37H459.487ZM488.22 51.2C488.22 44.8933 489.394 39.3567 491.74 34.59C494.16 29.8233 497.424 26.1567 501.53 23.59C505.637 21.0233 510.22 19.74 515.28 19.74C519.314 19.74 522.98 20.5833 526.28 22.27C529.654 23.9567 532.294 26.23 534.2 29.09V0.599999H553.01V82H534.2V73.2C532.44 76.1333 529.91 78.48 526.61 80.24C523.384 82 519.607 82.88 515.28 82.88C510.22 82.88 505.637 81.5967 501.53 79.03C497.424 76.39 494.16 72.6867 491.74 67.92C489.394 63.08 488.22 57.5067 488.22 51.2ZM534.2 51.31C534.2 46.6167 532.88 42.9133 530.24 40.2C527.674 37.4867 524.52 36.13 520.78 36.13C517.04 36.13 513.85 37.4867 511.21 40.2C508.644 42.84 507.36 46.5067 507.36 51.2C507.36 55.8933 508.644 59.6333 511.21 62.42C513.85 65.1333 517.04 66.49 520.78 66.49C524.52 66.49 527.674 65.1333 530.24 62.42C532.88 59.7067 534.2 56.0033 534.2 51.31Z" fill="white"/>
</g>
<defs>
<filter id="filter0_d_23_361" x="0.580078" y="0.599976" width="556.43" height="92.28" filterUnits="userSpaceOnUse" color-interpolation-filters="sRGB">
<feFlood flood-opacity="0" result="BackgroundImageFix"/>
<feColorMatrix in="SourceAlpha" type="matrix" values="0 0 0 0 0 0 0 0 0 0 0 0 0 0 0 0 0 0 127 0" result="hardAlpha"/>
<feOffset dy="6"/>
<feGaussianBlur stdDeviation="2"/>
<feComposite in2="hardAlpha" operator="out"/>
<feColorMatrix type="matrix" values="0 0 0 0 0.54 0 0 0 0 0 0 0 0 0 0.675 0 0 0 1 0"/>
<feBlend mode="normal" in2="BackgroundImageFix" result="effect1_dropShadow_23_361"/>
<feBlend mode="normal" in="SourceGraphic" in2="effect1_dropShadow_23_361" result="shape"/>
</filter>
</defs>
</svg>
