<svg width="257" height="53" viewBox="0 0 257 53" fill="none" xmlns="http://www.w3.org/2000/svg">
<path d="M28.1201 32.2C28.1201 30.1933 28.4935 28.4317 29.2401 26.915C30.0101 25.3983 31.0485 24.2317 32.3551 23.415C33.6618 22.5983 35.1201 22.19 36.7301 22.19C38.1068 22.19 39.3085 22.47 40.3351 23.03C41.3851 23.59 42.1901 24.325 42.7501 25.235V22.47H48.7351V42H42.7501V39.235C42.1668 40.145 41.3501 40.88 40.3001 41.44C39.2735 42 38.0718 42.28 36.6951 42.28C35.1085 42.28 33.6618 41.8717 32.3551 41.055C31.0485 40.215 30.0101 39.0367 29.2401 37.52C28.4935 35.98 28.1201 34.2067 28.1201 32.2ZM42.7501 32.235C42.7501 30.7417 42.3301 29.5633 41.4901 28.7C40.6735 27.8367 39.6701 27.405 38.4801 27.405C37.2901 27.405 36.2751 27.8367 35.4351 28.7C34.6185 29.54 34.2101 30.7067 34.2101 32.2C34.2101 33.6933 34.6185 34.8833 35.4351 35.77C36.2751 36.6333 37.2901 37.065 38.4801 37.065C39.6701 37.065 40.6735 36.6333 41.4901 35.77C42.3301 34.9067 42.7501 33.7283 42.7501 32.235ZM61.01 42.28C59.3067 42.28 57.79 41.9883 56.46 41.405C55.13 40.8217 54.08 40.0283 53.31 39.025C52.54 37.9983 52.1084 36.855 52.015 35.595H57.93C58 36.2717 58.315 36.82 58.875 37.24C59.435 37.66 60.1234 37.87 60.94 37.87C61.6867 37.87 62.2584 37.73 62.655 37.45C63.075 37.1467 63.285 36.7617 63.285 36.295C63.285 35.735 62.9934 35.3267 62.41 35.07C61.8267 34.79 60.8817 34.4867 59.575 34.16C58.175 33.8333 57.0084 33.495 56.075 33.145C55.1417 32.7717 54.3367 32.2 53.66 31.43C52.9834 30.6367 52.645 29.575 52.645 28.245C52.645 27.125 52.9484 26.11 53.555 25.2C54.185 24.2667 55.095 23.5317 56.285 22.995C57.4984 22.4583 58.9334 22.19 60.59 22.19C63.04 22.19 64.965 22.7967 66.365 24.01C67.7884 25.2233 68.605 26.8333 68.815 28.84H63.285C63.1917 28.1633 62.8884 27.6267 62.375 27.23C61.885 26.8333 61.2317 26.635 60.415 26.635C59.715 26.635 59.1784 26.775 58.805 27.055C58.4317 27.3117 58.245 27.6733 58.245 28.14C58.245 28.7 58.5367 29.12 59.12 29.4C59.7267 29.68 60.66 29.96 61.92 30.24C63.3667 30.6133 64.545 30.9867 65.455 31.36C66.365 31.71 67.1584 32.2933 67.835 33.11C68.535 33.9033 68.8967 34.9767 68.92 36.33C68.92 37.4733 68.5934 38.5 67.94 39.41C67.31 40.2967 66.3884 40.9967 65.175 41.51C63.985 42.0233 62.5967 42.28 61.01 42.28ZM84.5166 42L78.5666 33.81V42H72.5816V16.1H78.5666V30.415L84.4816 22.47H91.8666L83.7466 32.27L91.9366 42H84.5166ZM122.042 17.43V42H116.057V27.265L110.562 42H105.732L100.202 27.23V42H94.2174V17.43H101.287L108.182 34.44L115.007 17.43H122.042ZM125.156 32.2C125.156 30.1933 125.53 28.4317 126.276 26.915C127.046 25.3983 128.085 24.2317 129.391 23.415C130.698 22.5983 132.156 22.19 133.766 22.19C135.143 22.19 136.345 22.47 137.371 23.03C138.421 23.59 139.226 24.325 139.786 25.235V22.47H145.771V42H139.786V39.235C139.203 40.145 138.386 40.88 137.336 41.44C136.31 42 135.108 42.28 133.731 42.28C132.145 42.28 130.698 41.8717 129.391 41.055C128.085 40.215 127.046 39.0367 126.276 37.52C125.53 35.98 125.156 34.2067 125.156 32.2ZM139.786 32.235C139.786 30.7417 139.366 29.5633 138.526 28.7C137.71 27.8367 136.706 27.405 135.516 27.405C134.326 27.405 133.311 27.8367 132.471 28.7C131.655 29.54 131.246 30.7067 131.246 32.2C131.246 33.6933 131.655 34.8833 132.471 35.77C133.311 36.6333 134.326 37.065 135.516 37.065C136.706 37.065 137.71 36.6333 138.526 35.77C139.366 34.9067 139.786 33.7283 139.786 32.235ZM156.086 25.725C156.786 24.6517 157.661 23.8117 158.711 23.205C159.761 22.575 160.928 22.26 162.211 22.26V28.595H160.566C159.073 28.595 157.953 28.9217 157.206 29.575C156.459 30.205 156.086 31.325 156.086 32.935V42H150.101V22.47H156.086V25.725ZM177.007 42L171.057 33.81V42H165.072V16.1H171.057V30.415L176.972 22.47H184.357L176.237 32.27L184.427 42H177.007ZM205.118 31.92C205.118 32.48 205.083 33.0633 205.013 33.67H191.468C191.561 34.8833 191.946 35.8167 192.623 36.47C193.323 37.1 194.174 37.415 195.178 37.415C196.671 37.415 197.709 36.785 198.293 35.525H204.663C204.336 36.8083 203.741 37.9633 202.878 38.99C202.038 40.0167 200.976 40.8217 199.693 41.405C198.409 41.9883 196.974 42.28 195.388 42.28C193.474 42.28 191.771 41.8717 190.278 41.055C188.784 40.2383 187.618 39.0717 186.778 37.555C185.938 36.0383 185.518 34.265 185.518 32.235C185.518 30.205 185.926 28.4317 186.743 26.915C187.583 25.3983 188.749 24.2317 190.243 23.415C191.736 22.5983 193.451 22.19 195.388 22.19C197.278 22.19 198.958 22.5867 200.428 23.38C201.898 24.1733 203.041 25.305 203.858 26.775C204.698 28.245 205.118 29.96 205.118 31.92ZM198.993 30.345C198.993 29.3183 198.643 28.5017 197.943 27.895C197.243 27.2883 196.368 26.985 195.318 26.985C194.314 26.985 193.463 27.2767 192.763 27.86C192.086 28.4433 191.666 29.2717 191.503 30.345H198.993ZM207.085 32.2C207.085 30.1933 207.458 28.4317 208.205 26.915C208.975 25.3983 210.013 24.2317 211.32 23.415C212.627 22.5983 214.085 22.19 215.695 22.19C216.978 22.19 218.145 22.4583 219.195 22.995C220.268 23.5317 221.108 24.255 221.715 25.165V16.1H227.7V42H221.715V39.2C221.155 40.1333 220.35 40.88 219.3 41.44C218.273 42 217.072 42.28 215.695 42.28C214.085 42.28 212.627 41.8717 211.32 41.055C210.013 40.215 208.975 39.0367 208.205 37.52C207.458 35.98 207.085 34.2067 207.085 32.2ZM221.715 32.235C221.715 30.7417 221.295 29.5633 220.455 28.7C219.638 27.8367 218.635 27.405 217.445 27.405C216.255 27.405 215.24 27.8367 214.4 28.7C213.583 29.54 213.175 30.7067 213.175 32.2C213.175 33.6933 213.583 34.8833 214.4 35.77C215.24 36.6333 216.255 37.065 217.445 37.065C218.635 37.065 219.638 36.6333 220.455 35.77C221.295 34.9067 221.715 33.7283 221.715 32.235Z" fill="#8A00AC"/>
<path d="M28.1201 29.2C28.1201 27.1933 28.4935 25.4317 29.2401 23.915C30.0101 22.3983 31.0485 21.2317 32.3551 20.415C33.6618 19.5983 35.1201 19.19 36.7301 19.19C38.1068 19.19 39.3085 19.47 40.3351 20.03C41.3851 20.59 42.1901 21.325 42.7501 22.235V19.47H48.7351V39H42.7501V36.235C42.1668 37.145 41.3501 37.88 40.3001 38.44C39.2735 39 38.0718 39.28 36.6951 39.28C35.1085 39.28 33.6618 38.8717 32.3551 38.055C31.0485 37.215 30.0101 36.0367 29.2401 34.52C28.4935 32.98 28.1201 31.2067 28.1201 29.2ZM42.7501 29.235C42.7501 27.7417 42.3301 26.5633 41.4901 25.7C40.6735 24.8367 39.6701 24.405 38.4801 24.405C37.2901 24.405 36.2751 24.8367 35.4351 25.7C34.6185 26.54 34.2101 27.7067 34.2101 29.2C34.2101 30.6933 34.6185 31.8833 35.4351 32.77C36.2751 33.6333 37.2901 34.065 38.4801 34.065C39.6701 34.065 40.6735 33.6333 41.4901 32.77C42.3301 31.9067 42.7501 30.7283 42.7501 29.235ZM61.01 39.28C59.3067 39.28 57.79 38.9883 56.46 38.405C55.13 37.8217 54.08 37.0283 53.31 36.025C52.54 34.9983 52.1084 33.855 52.015 32.595H57.93C58 33.2717 58.315 33.82 58.875 34.24C59.435 34.66 60.1234 34.87 60.94 34.87C61.6867 34.87 62.2584 34.73 62.655 34.45C63.075 34.1467 63.285 33.7617 63.285 33.295C63.285 32.735 62.9934 32.3267 62.41 32.07C61.8267 31.79 60.8817 31.4867 59.575 31.16C58.175 30.8333 57.0084 30.495 56.075 30.145C55.1417 29.7717 54.3367 29.2 53.66 28.43C52.9834 27.6367 52.645 26.575 52.645 25.245C52.645 24.125 52.9484 23.11 53.555 22.2C54.185 21.2667 55.095 20.5317 56.285 19.995C57.4984 19.4583 58.9334 19.19 60.59 19.19C63.04 19.19 64.965 19.7967 66.365 21.01C67.7884 22.2233 68.605 23.8333 68.815 25.84H63.285C63.1917 25.1633 62.8884 24.6267 62.375 24.23C61.885 23.8333 61.2317 23.635 60.415 23.635C59.715 23.635 59.1784 23.775 58.805 24.055C58.4317 24.3117 58.245 24.6733 58.245 25.14C58.245 25.7 58.5367 26.12 59.12 26.4C59.7267 26.68 60.66 26.96 61.92 27.24C63.3667 27.6133 64.545 27.9867 65.455 28.36C66.365 28.71 67.1584 29.2933 67.835 30.11C68.535 30.9033 68.8967 31.9767 68.92 33.33C68.92 34.4733 68.5934 35.5 67.94 36.41C67.31 37.2967 66.3884 37.9967 65.175 38.51C63.985 39.0233 62.5967 39.28 61.01 39.28ZM84.5166 39L78.5666 30.81V39H72.5816V13.1H78.5666V27.415L84.4816 19.47H91.8666L83.7466 29.27L91.9366 39H84.5166ZM122.042 14.43V39H116.057V24.265L110.562 39H105.732L100.202 24.23V39H94.2174V14.43H101.287L108.182 31.44L115.007 14.43H122.042ZM125.156 29.2C125.156 27.1933 125.53 25.4317 126.276 23.915C127.046 22.3983 128.085 21.2317 129.391 20.415C130.698 19.5983 132.156 19.19 133.766 19.19C135.143 19.19 136.345 19.47 137.371 20.03C138.421 20.59 139.226 21.325 139.786 22.235V19.47H145.771V39H139.786V36.235C139.203 37.145 138.386 37.88 137.336 38.44C136.31 39 135.108 39.28 133.731 39.28C132.145 39.28 130.698 38.8717 129.391 38.055C128.085 37.215 127.046 36.0367 126.276 34.52C125.53 32.98 125.156 31.2067 125.156 29.2ZM139.786 29.235C139.786 27.7417 139.366 26.5633 138.526 25.7C137.71 24.8367 136.706 24.405 135.516 24.405C134.326 24.405 133.311 24.8367 132.471 25.7C131.655 26.54 131.246 27.7067 131.246 29.2C131.246 30.6933 131.655 31.8833 132.471 32.77C133.311 33.6333 134.326 34.065 135.516 34.065C136.706 34.065 137.71 33.6333 138.526 32.77C139.366 31.9067 139.786 30.7283 139.786 29.235ZM156.086 22.725C156.786 21.6517 157.661 20.8117 158.711 20.205C159.761 19.575 160.928 19.26 162.211 19.26V25.595H160.566C159.073 25.595 157.953 25.9217 157.206 26.575C156.459 27.205 156.086 28.325 156.086 29.935V39H150.101V19.47H156.086V22.725ZM177.007 39L171.057 30.81V39H165.072V13.1H171.057V27.415L176.972 19.47H184.357L176.237 29.27L184.427 39H177.007ZM205.118 28.92C205.118 29.48 205.083 30.0633 205.013 30.67H191.468C191.561 31.8833 191.946 32.8167 192.623 33.47C193.323 34.1 194.174 34.415 195.178 34.415C196.671 34.415 197.709 33.785 198.293 32.525H204.663C204.336 33.8083 203.741 34.9633 202.878 35.99C202.038 37.0167 200.976 37.8217 199.693 38.405C198.409 38.9883 196.974 39.28 195.388 39.28C193.474 39.28 191.771 38.8717 190.278 38.055C188.784 37.2383 187.618 36.0717 186.778 34.555C185.938 33.0383 185.518 31.265 185.518 29.235C185.518 27.205 185.926 25.4317 186.743 23.915C187.583 22.3983 188.749 21.2317 190.243 20.415C191.736 19.5983 193.451 19.19 195.388 19.19C197.278 19.19 198.958 19.5867 200.428 20.38C201.898 21.1733 203.041 22.305 203.858 23.775C204.698 25.245 205.118 26.96 205.118 28.92ZM198.993 27.345C198.993 26.3183 198.643 25.5017 197.943 24.895C197.243 24.2883 196.368 23.985 195.318 23.985C194.314 23.985 193.463 24.2767 192.763 24.86C192.086 25.4433 191.666 26.2717 191.503 27.345H198.993ZM207.085 29.2C207.085 27.1933 207.458 25.4317 208.205 23.915C208.975 22.3983 210.013 21.2317 211.32 20.415C212.627 19.5983 214.085 19.19 215.695 19.19C216.978 19.19 218.145 19.4583 219.195 19.995C220.268 20.5317 221.108 21.255 221.715 22.165V13.1H227.7V39H221.715V36.2C221.155 37.1333 220.35 37.88 219.3 38.44C218.273 39 217.072 39.28 215.695 39.28C214.085 39.28 212.627 38.8717 211.32 38.055C210.013 37.215 208.975 36.0367 208.205 34.52C207.458 32.98 207.085 31.2067 207.085 29.2ZM221.715 29.235C221.715 27.7417 221.295 26.5633 220.455 25.7C219.638 24.8367 218.635 24.405 217.445 24.405C216.255 24.405 215.24 24.8367 214.4 25.7C213.583 26.54 213.175 27.7067 213.175 29.2C213.175 30.6933 213.583 31.8833 214.4 32.77C215.24 33.6333 216.255 34.065 217.445 34.065C218.635 34.065 219.638 33.6333 220.455 32.77C221.295 31.9067 221.715 30.7283 221.715 29.235Z" fill="white"/>
</svg>
