<svg width="69" height="77" viewBox="0 0 69 77" fill="none" xmlns="http://www.w3.org/2000/svg">
<path d="M21.644 48.3182H30.1667L33.7889 52.9418L38.5403 58.3963L45.8485 67.4091H36.3031L31.1895 61.294L28.1639 56.9474L21.644 48.3182ZM46.1468 42.1818C46.1468 46.983 45.2235 51.0526 43.377 54.3906C41.5304 57.7287 39.0304 60.2642 35.877 61.9972C32.7377 63.7301 29.215 64.5966 25.3088 64.5966C21.3883 64.5966 17.8585 63.723 14.7193 61.9759C11.5801 60.2287 9.08718 57.6932 7.24059 54.3693C5.4082 51.0312 4.49201 46.9687 4.49201 42.1818C4.49201 37.3807 5.4082 33.3111 7.24059 29.973C9.08718 26.6349 11.5801 24.0994 14.7193 22.3665C17.8585 20.6335 21.3883 19.767 25.3088 19.767C29.215 19.767 32.7377 20.6335 35.877 22.3665C39.0304 24.0994 41.5304 26.6349 43.377 29.973C45.2235 33.3111 46.1468 37.3807 46.1468 42.1818ZM35.3656 42.1818C35.3656 39.3409 34.9608 36.9403 34.1511 34.9801C33.3556 33.0199 32.2051 31.5355 30.6994 30.527C29.2079 29.5185 27.411 29.0142 25.3088 29.0142C23.2207 29.0142 21.4238 29.5185 19.9181 30.527C18.4125 31.5355 17.2548 33.0199 16.4451 34.9801C15.6497 36.9403 15.252 39.3409 15.252 42.1818C15.252 45.0227 15.6497 47.4233 16.4451 49.3835C17.2548 51.3437 18.4125 52.8281 19.9181 53.8366C21.4238 54.8452 23.2207 55.3494 25.3088 55.3494C27.411 55.3494 29.2079 54.8452 30.6994 53.8366C32.2051 52.8281 33.3556 51.3437 34.1511 49.3835C34.9608 47.4233 35.3656 45.0227 35.3656 42.1818ZM58.2225 59.0994C56.6884 59.0994 55.3745 58.5597 54.2807 57.4801C53.2012 56.4006 52.6685 55.0938 52.6827 53.5597C52.6685 52.054 53.2012 50.7685 54.2807 49.7031C55.3745 48.6236 56.6884 48.0838 58.2225 48.0838C59.6713 48.0838 60.9498 48.6236 62.0577 49.7031C63.1799 50.7685 63.748 52.054 63.7623 53.5597C63.748 54.5824 63.4782 55.5128 62.9526 56.3509C62.4412 57.1889 61.7665 57.8565 60.9284 58.3537C60.1046 58.8509 59.2026 59.0994 58.2225 59.0994ZM58.2225 37.9205C56.6884 37.9205 55.3745 37.3807 54.2807 36.3011C53.2012 35.2216 52.6685 33.9148 52.6827 32.3807C52.6685 30.875 53.2012 29.5895 54.2807 28.5241C55.3745 27.4446 56.6884 26.9048 58.2225 26.9048C59.6713 26.9048 60.9498 27.4446 62.0577 28.5241C63.1799 29.5895 63.748 30.875 63.7623 32.3807C63.748 33.4034 63.4782 34.3338 62.9526 35.1719C62.4412 36.0099 61.7665 36.6776 60.9284 37.1747C60.1046 37.6719 59.2026 37.9205 58.2225 37.9205Z" fill="#8A00AC"/>
<path d="M20.144 42.3182H28.6667L32.2889 46.9418L37.0403 52.3963L44.3485 61.4091H34.8031L29.6895 55.294L26.6639 50.9474L20.144 42.3182ZM44.6468 36.1818C44.6468 40.983 43.7235 45.0526 41.877 48.3906C40.0304 51.7287 37.5304 54.2642 34.377 55.9972C31.2377 57.7301 27.715 58.5966 23.8088 58.5966C19.8883 58.5966 16.3585 57.723 13.2193 55.9759C10.0801 54.2287 7.58718 51.6932 5.74059 48.3693C3.9082 45.0312 2.99201 40.9687 2.99201 36.1818C2.99201 31.3807 3.9082 27.3111 5.74059 23.973C7.58718 20.6349 10.0801 18.0994 13.2193 16.3665C16.3585 14.6335 19.8883 13.767 23.8088 13.767C27.715 13.767 31.2377 14.6335 34.377 16.3665C37.5304 18.0994 40.0304 20.6349 41.877 23.973C43.7235 27.3111 44.6468 31.3807 44.6468 36.1818ZM33.8656 36.1818C33.8656 33.3409 33.4608 30.9403 32.6511 28.9801C31.8556 27.0199 30.7051 25.5355 29.1994 24.527C27.7079 23.5185 25.911 23.0142 23.8088 23.0142C21.7207 23.0142 19.9238 23.5185 18.4181 24.527C16.9125 25.5355 15.7548 27.0199 14.9451 28.9801C14.1497 30.9403 13.752 33.3409 13.752 36.1818C13.752 39.0227 14.1497 41.4233 14.9451 43.3835C15.7548 45.3437 16.9125 46.8281 18.4181 47.8366C19.9238 48.8452 21.7207 49.3494 23.8088 49.3494C25.911 49.3494 27.7079 48.8452 29.1994 47.8366C30.7051 46.8281 31.8556 45.3437 32.6511 43.3835C33.4608 41.4233 33.8656 39.0227 33.8656 36.1818ZM56.7225 53.0994C55.1884 53.0994 53.8745 52.5597 52.7807 51.4801C51.7012 50.4006 51.1685 49.0938 51.1827 47.5597C51.1685 46.054 51.7012 44.7685 52.7807 43.7031C53.8745 42.6236 55.1884 42.0838 56.7225 42.0838C58.1713 42.0838 59.4498 42.6236 60.5577 43.7031C61.6799 44.7685 62.248 46.054 62.2623 47.5597C62.248 48.5824 61.9782 49.5128 61.4526 50.3509C60.9412 51.1889 60.2665 51.8565 59.4284 52.3537C58.6046 52.8509 57.7026 53.0994 56.7225 53.0994ZM56.7225 31.9205C55.1884 31.9205 53.8745 31.3807 52.7807 30.3011C51.7012 29.2216 51.1685 27.9148 51.1827 26.3807C51.1685 24.875 51.7012 23.5895 52.7807 22.5241C53.8745 21.4446 55.1884 20.9048 56.7225 20.9048C58.1713 20.9048 59.4498 21.4446 60.5577 22.5241C61.6799 23.5895 62.248 24.875 62.2623 26.3807C62.248 27.4034 61.9782 28.3338 61.4526 29.1719C60.9412 30.0099 60.2665 30.6776 59.4284 31.1747C58.6046 31.6719 57.7026 31.9205 56.7225 31.9205Z" fill="white"/>
</svg>

